<svg width="28" height="24" viewBox="0 0 28 24" fill="none" xmlns="http://www.w3.org/2000/svg">
<path d="M27.3337 13.332V22.6667C27.3337 23.0203 27.1932 23.3594 26.9431 23.6095C26.6931 23.8595 26.3539 24 26.0003 24H15.3337V13.332H27.3337ZM12.667 13.332V24H2.00033C1.6467 24 1.30756 23.8595 1.05752 23.6095C0.807468 23.3594 0.666992 23.0203 0.666992 22.6667V13.332H12.667V13.332ZM12.667 0V10.6653H0.666992V1.33333C0.666992 0.979711 0.807468 0.640573 1.05752 0.390524C1.30756 0.140476 1.6467 0 2.00033 0H12.667ZM26.0003 0C26.3539 0 26.6931 0.140476 26.9431 0.390524C27.1932 0.640573 27.3337 0.979711 27.3337 1.33333V10.6653H15.3337V0H26.0003Z" fill="#657893"/>
</svg>
