<svg width="24" height="24" viewBox="0 0 24 24" fill="none" xmlns="http://www.w3.org/2000/svg">
<path d="M21.3335 7.61334L14.2229 2.08267C13.5989 1.59722 12.8308 1.33365 12.0402 1.33365C11.2496 1.33365 10.4815 1.59722 9.85753 2.08267L2.74554 7.61334C2.31813 7.94572 1.97233 8.37138 1.73454 8.85781C1.49676 9.34423 1.37328 9.87857 1.37354 10.42V20.02C1.37354 20.7273 1.65449 21.4055 2.15458 21.9056C2.65468 22.4057 3.33296 22.6867 4.0402 22.6867H20.0402C20.7474 22.6867 21.4257 22.4057 21.9258 21.9056C22.4259 21.4055 22.7069 20.7273 22.7069 20.02V10.42C22.7069 9.32267 22.2002 8.28667 21.3335 7.61334Z" stroke="#FCFDFD" stroke-width="2" stroke-linecap="round" stroke-linejoin="round"/>
</svg>
