<svg width="20" height="22" viewBox="0 0 20 22" fill="none" xmlns="http://www.w3.org/2000/svg">
<path d="M1.3403 16C0.917575 15.269 0.58897 14.4875 0.362305 13.674C0.855612 13.4231 1.2699 13.0406 1.55933 12.5689C1.84877 12.0972 2.00207 11.5546 2.00228 11.0011C2.00248 10.4477 1.84959 9.90495 1.56051 9.43301C1.27143 8.96106 0.857424 8.57828 0.364305 8.32701C0.816341 6.69249 1.67703 5.19996 2.8653 3.99001C3.3294 4.29173 3.86792 4.45917 4.42128 4.47379C4.97464 4.48841 5.52126 4.34964 6.00063 4.07284C6.48001 3.79604 6.87346 3.392 7.13743 2.90545C7.4014 2.41889 7.52561 1.86878 7.4963 1.31601C9.13841 0.891628 10.8615 0.892317 12.5033 1.31801C12.4743 1.87077 12.5987 2.4208 12.8629 2.90721C13.1271 3.39363 13.5207 3.79748 14.0001 4.07407C14.4796 4.35065 15.0262 4.48919 15.5796 4.47436C16.1329 4.45952 16.6713 4.29189 17.1353 3.99001C17.7143 4.58001 18.2283 5.25101 18.6603 6.00001C19.0933 6.74901 19.4173 7.53001 19.6383 8.32601C19.145 8.57691 18.7307 8.95938 18.4413 9.43111C18.1518 9.90284 17.9985 10.4454 17.9983 10.9989C17.9981 11.5523 18.151 12.0951 18.4401 12.567C18.7292 13.039 19.1432 13.4217 19.6363 13.673C19.1843 15.3075 18.3236 16.8001 17.1353 18.01C16.6712 17.7083 16.1327 17.5408 15.5793 17.5262C15.026 17.5116 14.4794 17.6504 14 17.9272C13.5206 18.204 13.1272 18.608 12.8632 19.0946C12.5992 19.5811 12.475 20.1312 12.5043 20.684C10.8622 21.1084 9.13907 21.1077 7.4973 20.682C7.52635 20.1292 7.4019 19.5792 7.13773 19.0928C6.87355 18.6064 6.47995 18.2025 6.00048 17.9259C5.52101 17.6494 4.97436 17.5108 4.42103 17.5257C3.8677 17.5405 3.32927 17.7081 2.8653 18.01C2.2743 17.407 1.7619 16.7316 1.3403 16ZM7.0003 16.196C8.06593 16.8106 8.86715 17.797 9.25031 18.966C9.7493 19.013 10.2503 19.014 10.7493 18.967C11.1327 17.7979 11.9343 16.8114 13.0003 16.197C14.0655 15.5807 15.3208 15.3795 16.5253 15.632C16.8153 15.224 17.0653 14.789 17.2733 14.334C16.4527 13.4174 15.9994 12.2302 16.0003 11C16.0003 9.74001 16.4703 8.56301 17.2733 7.66601C17.0638 7.21115 16.8128 6.77664 16.5233 6.36801C15.3196 6.62032 14.0651 6.41948 13.0003 5.80401C11.9347 5.18938 11.1335 4.20299 10.7503 3.03401C10.2513 2.98701 9.7503 2.98601 9.2513 3.03301C8.8679 4.20215 8.06631 5.18857 7.0003 5.80301C5.93509 6.41932 4.67978 6.62053 3.4753 6.36801C3.18587 6.77629 2.93544 7.21087 2.7273 7.66601C3.54788 8.58257 4.00119 9.7698 4.0003 11C4.0003 12.26 3.5303 13.437 2.7273 14.334C2.93678 14.7889 3.18784 15.2234 3.4773 15.632C4.68102 15.3797 5.93551 15.5805 7.0003 16.196ZM10.0003 14C9.20466 14 8.44159 13.6839 7.87898 13.1213C7.31637 12.5587 7.0003 11.7957 7.0003 11C7.0003 10.2044 7.31637 9.44129 7.87898 8.87869C8.44159 8.31608 9.20466 8.00001 10.0003 8.00001C10.796 8.00001 11.559 8.31608 12.1216 8.87869C12.6842 9.44129 13.0003 10.2044 13.0003 11C13.0003 11.7957 12.6842 12.5587 12.1216 13.1213C11.559 13.6839 10.796 14 10.0003 14ZM10.0003 12C10.2655 12 10.5199 11.8946 10.7074 11.7071C10.8949 11.5196 11.0003 11.2652 11.0003 11C11.0003 10.7348 10.8949 10.4804 10.7074 10.2929C10.5199 10.1054 10.2655 10 10.0003 10C9.73509 10 9.48073 10.1054 9.2932 10.2929C9.10566 10.4804 9.00031 10.7348 9.00031 11C9.00031 11.2652 9.10566 11.5196 9.2932 11.7071C9.48073 11.8946 9.73509 12 10.0003 12Z" fill="#FCFDFD"/>
</svg>
