<svg width="32" height="32" viewBox="0 0 32 32" fill="none" xmlns="http://www.w3.org/2000/svg">
<path d="M8.00016 28C9.47292 28 10.6668 26.8061 10.6668 25.3333C10.6668 23.8606 9.47292 22.6667 8.00016 22.6667C6.5274 22.6667 5.3335 23.8606 5.3335 25.3333C5.3335 26.8061 6.5274 28 8.00016 28Z" stroke="#FCFDFD" stroke-width="2" stroke-linecap="round" stroke-linejoin="round"/>
<path d="M22.6667 28C24.1394 28 25.3333 26.8061 25.3333 25.3333C25.3333 23.8606 24.1394 22.6667 22.6667 22.6667C21.1939 22.6667 20 23.8606 20 25.3333C20 26.8061 21.1939 28 22.6667 28Z" stroke="#FCFDFD" stroke-width="2" stroke-linecap="round" stroke-linejoin="round"/>
<path d="M22.6668 22.6667H8.00016V4H5.3335" stroke="#FCFDFD" stroke-width="2" stroke-linecap="round" stroke-linejoin="round"/>
<path d="M8 6.66666H26.6667V17.3333H8" stroke="#FCFDFD" stroke-width="2" stroke-linecap="round" stroke-linejoin="round"/>
</svg>
