<svg width="20" height="20" viewBox="0 0 20 20" fill="none" xmlns="http://www.w3.org/2000/svg">
<path d="M8.08451 2.32757C9.07685 1.12175 10.9232 1.12175 11.9155 2.32757V2.32757C12.4405 2.96546 13.2485 3.30017 14.0708 3.22031V3.22031C15.6251 3.06936 16.9306 4.37489 16.7797 5.92923V5.92923C16.6998 6.75149 17.0345 7.55955 17.6724 8.08451V8.08451C18.8783 9.07685 18.8783 10.9231 17.6724 11.9155V11.9155C17.0345 12.4404 16.6998 13.2485 16.7797 14.0708V14.0708C16.9306 15.6251 15.6251 16.9306 14.0708 16.7797V16.7797C13.2485 16.6998 12.4404 17.0345 11.9155 17.6724V17.6724C10.9232 18.8783 9.07685 18.8783 8.08451 17.6724V17.6724C7.55955 17.0345 6.75149 16.6998 5.92923 16.7797V16.7797C4.37489 16.9306 3.06936 15.6251 3.22031 14.0708V14.0708C3.30017 13.2485 2.96546 12.4405 2.32757 11.9155V11.9155C1.12175 10.9232 1.12175 9.07685 2.32757 8.08451V8.08451C2.96546 7.55955 3.30017 6.75149 3.22031 5.92923V5.92923C3.06936 4.37489 4.37489 3.06936 5.92923 3.22031V3.22031C6.75149 3.30017 7.55955 2.96546 8.08451 2.32757V2.32757Z" fill="#EDE68A"/>
<path d="M7.37361 8.87623C6.98309 8.4857 6.34992 8.4857 5.9594 8.87623C5.56887 9.26675 5.56887 9.89992 5.9594 10.2904L7.37361 8.87623ZM9.1665 12.0833L8.4594 12.7904C8.64693 12.978 8.90129 13.0833 9.1665 13.0833C9.43172 13.0833 9.68607 12.978 9.87361 12.7904L9.1665 12.0833ZM14.4569 8.20711C14.8475 7.81658 14.8475 7.18342 14.4569 6.79289C14.0664 6.40237 13.4333 6.40237 13.0427 6.79289L14.4569 8.20711ZM5.9594 10.2904L8.4594 12.7904L9.87361 11.3762L7.37361 8.87623L5.9594 10.2904ZM9.87361 12.7904L14.4569 8.20711L13.0427 6.79289L8.4594 11.3762L9.87361 12.7904Z" fill="#001F3F"/>
</svg>
